# xmcd
#
# Track frame offsets:
#	150
#	14152
#	30863
#	49410
#	61779
#	75809
#	94929
#	118090
#	132301
#	144179
#	167621
#
# Disc length: 2431 seconds
#
# Revision: 0
# Processed by: cddbd v1.5.2PL0 Copyright (c) Steve Scherf et al.
# Submitted via: audiograbber 1.83.01
#
DISCID=85097d0b
DTITLE=Sampler - Blues News
DYEAR=1969
DGENRE=Blues
TTITLE0=Muddy Waters  - Let´s Spend The Night Together
TTITLE1=Jimi Hendrix Experience - Red House
TTITLE2=Howlin' Wolf  - Evil
TTITLE3=Buddy Guy  - I Suffler With The Blues
TTITLE4=Cream - Take It Back
TTITLE5=The Taste - Leaving Blues
TTITLE6=Howlin' Wolf  - Built For Comfort
TTITLE7=Cream - Born Under A Bad Sign
TTITLE8=Muddy Waters  - Same Thing
TTITLE9=Jimi Hendrix Experience - Voodo Chile
TTITLE10=The Savage Rose - Long Before I Was Born
EXTD=
EXTT0=
EXTT1=
EXTT2=
EXTT3=
EXTT4=
EXTT5=
EXTT6=
EXTT7=
EXTT8=
EXTT9=
EXTT10=
PLAYORDER=
